<?xml version="1.0" encoding="utf-8"?>
<svg viewBox="2.193 3.322 34.413 27.864" xmlns="http://www.w3.org/2000/svg">
  <g transform="matrix(0.093356, 0, 0, 0.09924, -2.052079, -6.084658)" style="">
    <path d="M 133.834 263.69 L 108.223 278.2 C 98.844 283.507 98.844 294.133 108.223 299.44 L 215.132 360.024 C 221.375 363.568 229.965 363.568 236.207 360.024 L 272.662 339.365 C 268.482 338.916 264.513 337.696 261.106 335.812 C 218.105 312.369 175.969 288.029 133.834 263.69 Z M 317.506 214.947 L 386.243 253.903 C 395.455 259.208 395.455 269.69 386.243 275.005 L 286.382 331.593 C 280.134 335.135 271.542 335.135 265.293 331.593 L 185.837 286.563 C 189.94 286.162 193.932 284.981 197.393 283.009 L 317.506 214.947 Z M 65.208 218.206 C 55.845 212.892 55.852 202.274 65.222 196.967 L 215.132 112.011 C 221.375 108.468 229.965 108.468 236.207 112.011 L 343.131 172.596 C 352.496 177.9 352.496 188.52 343.131 193.824 L 193.206 278.791 C 186.953 282.322 178.37 282.322 172.117 278.791 L 65.208 218.206 Z" style="fill: rgb(86, 213, 213); paint-order: fill;"/>
    <path d="M 172.577 200.744 C 175.488 213.212 177.906 225.083 186.393 233.629 L 170.216 233.629 C 166.446 233.6 163.392 230.804 163.336 227.333 L 163.336 156.359 C 163.374 152.878 166.434 150.066 170.216 150.04 L 181.904 150.04 C 179.055 152.429 176.553 155.149 174.462 158.131 C 165.212 171.183 169.016 185.415 172.577 200.744 Z M 260.429 150.04 L 242.086 150.04 C 246.427 154.037 250.088 159.217 252.857 165.653 L 224.968 171.07 C 221.91 165.68 217.261 161.193 208.172 162.955 C 203.163 163.933 199.841 166.522 198.364 169.355 C 196.552 172.851 195.66 176.768 199.996 195.389 C 204.324 214.01 206.877 217.258 210.077 219.777 C 212.682 221.815 216.88 222.944 221.892 221.97 C 230.991 220.207 233.23 214.382 233.625 208.316 L 261.512 202.894 C 262.175 216.178 257.704 226.479 249.82 233.602 L 260.429 233.602 C 264.198 233.573 267.254 230.781 267.313 227.31 L 267.313 156.359 C 267.271 152.878 264.21 150.067 260.429 150.04 Z" style="fill: rgb(0, 218, 207); stroke-width: 2px; stroke: rgb(17, 32, 68); paint-order: fill;"/>
  </g>
</svg>